<svg fill="currentColor" height="200px" width="200px" version="1.1" id="Layer_1"
    xmlns="http://www.w3.org/2000/svg" xmlns:xlink="http://www.w3.org/1999/xlink"
    viewBox="0 0 512 512" xml:space="preserve" transform="matrix(-1, 0, 0, 1, 0, 0)"><g id="SVGRepo_bgCarrier" stroke-width="0"></g><g id="SVGRepo_tracerCarrier" stroke-linecap="round" stroke-linejoin="round"></g><g id="SVGRepo_iconCarrier"> <g> <g> <path d="M452.885,21.333H59.115C26.517,21.333,0,47.851,0,80.448v244.437C0,357.483,26.517,384,59.115,384h252.053 l100.416,100.416c4.075,4.075,9.536,6.251,15.083,6.251c2.752,0,5.525-0.533,8.171-1.621c7.957-3.307,13.163-11.093,13.163-19.712 V384h4.885C485.483,384,512,357.483,512,324.885V80.448C512,47.851,485.483,21.333,452.885,21.333z"></path> </g> </g> </g></svg>